<svg width="12" height="12" viewBox="0 0 12 12" fill="none" xmlns="http://www.w3.org/2000/svg">
<g id="border_color">
<mask id="mask0_493_680" style="mask-type:alpha" maskUnits="userSpaceOnUse" x="0" y="0" width="12" height="12">
<rect id="Bounding box" width="12" height="12" fill="#D9D9D9"/>
</mask>
<g mask="url(#mask0_493_680)">
<path id="border_color_2" d="M1 12V10H11V12H1ZM3 8H3.7L7.6 4.1125L6.8875 3.4L3 7.3V8ZM2 9V6.875L7.6 1.2875C7.69167 1.19583 7.79792 1.125 7.91875 1.075C8.03958 1.025 8.16667 1 8.3 1C8.43333 1 8.5625 1.025 8.6875 1.075C8.8125 1.125 8.925 1.2 9.025 1.3L9.7125 2C9.8125 2.09167 9.88542 2.2 9.93125 2.325C9.97708 2.45 10 2.57917 10 2.7125C10 2.8375 9.97708 2.96042 9.93125 3.08125C9.88542 3.20208 9.8125 3.3125 9.7125 3.4125L4.125 9H2Z" fill="white"/>
</g>
</g>
</svg>
