<svg width="16" height="16" viewBox="0 0 16 16" fill="none" xmlns="http://www.w3.org/2000/svg">
<g id="format_underlined">
<mask id="mask0_416_221" style="mask-type:alpha" maskUnits="userSpaceOnUse" x="0" y="0" width="16" height="16">
<rect id="Bounding box" width="16" height="16" fill="#D9D9D9"/>
</mask>
<g mask="url(#mask0_416_221)">
<path id="format_underlined_2" d="M3.3335 13.9998V12.6664H12.6668V13.9998H3.3335ZM8.00016 11.3331C6.87794 11.3331 6.00572 10.9831 5.3835 10.2831C4.76127 9.58309 4.45016 8.65531 4.45016 7.49976V1.99976H6.16683V7.59976C6.16683 8.22198 6.32239 8.72753 6.6335 9.11642C6.94461 9.50531 7.40016 9.69976 8.00016 9.69976C8.60016 9.69976 9.05572 9.50531 9.36683 9.11642C9.67794 8.72753 9.8335 8.22198 9.8335 7.59976V1.99976H11.5502V7.49976C11.5502 8.65531 11.2391 9.58309 10.6168 10.2831C9.99461 10.9831 9.12238 11.3331 8.00016 11.3331Z" fill="#1D1B20"/>
</g>
</g>
</svg>
