<svg width="16" height="16" viewBox="0 0 16 16" fill="none" xmlns="http://www.w3.org/2000/svg">
<g id="format_bold">
<mask id="mask0_416_215" style="mask-type:alpha" maskUnits="userSpaceOnUse" x="0" y="0" width="16" height="16">
<rect id="Bounding box" width="16" height="16" fill="#D9D9D9"/>
</mask>
<g mask="url(#mask0_416_215)">
<path id="format_bold_2" d="M4.53369 12.6661V3.33276H8.21703C8.93925 3.33276 9.60591 3.55499 10.217 3.99943C10.8281 4.44387 11.1337 5.06054 11.1337 5.84943C11.1337 6.4161 11.0059 6.85221 10.7504 7.15776C10.4948 7.46332 10.2559 7.68276 10.0337 7.8161C10.3115 7.93832 10.6198 8.1661 10.9587 8.49943C11.2976 8.83276 11.467 9.33276 11.467 9.99943C11.467 10.9883 11.1059 11.68 10.3837 12.0744C9.66147 12.4689 8.98369 12.6661 8.35036 12.6661H4.53369ZM6.55036 10.7994H8.28369C8.81703 10.7994 9.14203 10.6633 9.25869 10.3911C9.37536 10.1189 9.43369 9.92165 9.43369 9.79943C9.43369 9.67721 9.37536 9.47999 9.25869 9.20776C9.14203 8.93554 8.80036 8.79943 8.23369 8.79943H6.55036V10.7994ZM6.55036 6.99943H8.10036C8.46703 6.99943 8.73369 6.90499 8.90036 6.7161C9.06703 6.52721 9.15036 6.3161 9.15036 6.08276C9.15036 5.8161 9.05591 5.59943 8.86703 5.43276C8.67814 5.2661 8.43369 5.18276 8.13369 5.18276H6.55036V6.99943Z" fill="#1D1B20"/>
</g>
</g>
</svg>
