<svg width="16" height="16" viewBox="0 0 16 16" fill="none" xmlns="http://www.w3.org/2000/svg">
<g id="format_list_bulleted">
<mask id="mask0_416_242" style="mask-type:alpha" maskUnits="userSpaceOnUse" x="0" y="0" width="16" height="16">
<rect id="Bounding box" width="16" height="16" fill="#D9D9D9"/>
</mask>
<g mask="url(#mask0_416_242)">
<path id="format_list_bulleted_2" d="M6.00049 12.667V11.3337H14.0005V12.667H6.00049ZM6.00049 8.66699V7.33366H14.0005V8.66699H6.00049ZM6.00049 4.66699V3.33366H14.0005V4.66699H6.00049ZM3.33382 13.3337C2.96716 13.3337 2.65327 13.2031 2.39216 12.942C2.13104 12.6809 2.00049 12.367 2.00049 12.0003C2.00049 11.6337 2.13104 11.3198 2.39216 11.0587C2.65327 10.7975 2.96716 10.667 3.33382 10.667C3.70049 10.667 4.01438 10.7975 4.27549 11.0587C4.5366 11.3198 4.66716 11.6337 4.66716 12.0003C4.66716 12.367 4.5366 12.6809 4.27549 12.942C4.01438 13.2031 3.70049 13.3337 3.33382 13.3337ZM3.33382 9.33366C2.96716 9.33366 2.65327 9.2031 2.39216 8.94199C2.13104 8.68088 2.00049 8.36699 2.00049 8.00033C2.00049 7.63366 2.13104 7.31977 2.39216 7.05866C2.65327 6.79755 2.96716 6.66699 3.33382 6.66699C3.70049 6.66699 4.01438 6.79755 4.27549 7.05866C4.5366 7.31977 4.66716 7.63366 4.66716 8.00033C4.66716 8.36699 4.5366 8.68088 4.27549 8.94199C4.01438 9.2031 3.70049 9.33366 3.33382 9.33366ZM3.33382 5.33366C2.96716 5.33366 2.65327 5.2031 2.39216 4.94199C2.13104 4.68088 2.00049 4.36699 2.00049 4.00033C2.00049 3.63366 2.13104 3.31977 2.39216 3.05866C2.65327 2.79755 2.96716 2.66699 3.33382 2.66699C3.70049 2.66699 4.01438 2.79755 4.27549 3.05866C4.5366 3.31977 4.66716 3.63366 4.66716 4.00033C4.66716 4.36699 4.5366 4.68088 4.27549 4.94199C4.01438 5.2031 3.70049 5.33366 3.33382 5.33366Z" fill="#1D1B20"/>
</g>
</g>
</svg>
