<svg width="24" height="20" viewBox="0 0 24 20" fill="none" xmlns="http://www.w3.org/2000/svg">
<rect width="24" height="20" fill="#BDA3ED"/>
<path d="M15.3486 13.9609V15H8.83398V14.0908L12.0947 10.4609C12.4958 10.0143 12.8057 9.63607 13.0244 9.32617C13.2477 9.01172 13.4027 8.73145 13.4893 8.48535C13.5804 8.2347 13.626 7.97949 13.626 7.71973C13.626 7.3916 13.5576 7.09538 13.4209 6.83105C13.2887 6.56217 13.0928 6.34798 12.833 6.18848C12.5732 6.02897 12.2588 5.94922 11.8896 5.94922C11.4476 5.94922 11.0785 6.03581 10.7822 6.20898C10.4906 6.3776 10.2718 6.61458 10.126 6.91992C9.98014 7.22526 9.90723 7.57617 9.90723 7.97266H8.64258C8.64258 7.41211 8.76562 6.89941 9.01172 6.43457C9.25781 5.96973 9.6224 5.60059 10.1055 5.32715C10.5885 5.04915 11.1833 4.91016 11.8896 4.91016C12.5186 4.91016 13.0563 5.02181 13.5029 5.24512C13.9495 5.46387 14.2913 5.77376 14.5283 6.1748C14.7699 6.57129 14.8906 7.03613 14.8906 7.56934C14.8906 7.861 14.8405 8.15723 14.7402 8.45801C14.6445 8.75423 14.5101 9.05046 14.3369 9.34668C14.1683 9.6429 13.9701 9.93457 13.7422 10.2217C13.5189 10.5088 13.2796 10.7913 13.0244 11.0693L10.3584 13.9609H15.3486Z" fill="#1D1B20"/>
</svg>
