<svg width="60" height="60" viewBox="0 0 60 60" fill="none" xmlns="http://www.w3.org/2000/svg">
<g id="logo planify">
<g id="Clip path group">
<mask id="mask0_194_379" style="mask-type:luminance" maskUnits="userSpaceOnUse" x="13" y="2" width="36" height="49">
<g id="00c512f482">
<path id="Vector" d="M13.3481 2.27747H48.1481V50.8768H13.3481V2.27747Z" fill="white"/>
</g>
</mask>
<g mask="url(#mask0_194_379)">
<g id="Group">
<path id="Vector_2" d="M48.1637 20.3924C48.1725 20.7724 48.1694 21.1524 48.1544 21.5324C48.1394 21.9118 48.1125 22.2912 48.0744 22.6693C48.0362 23.0474 47.9862 23.4243 47.925 23.7993C47.8631 24.1743 47.79 24.5474 47.7056 24.918C47.6212 25.2887 47.5256 25.6568 47.4187 26.0212C47.3112 26.3862 47.1931 26.7474 47.0637 27.1049C46.9344 27.4624 46.7944 27.8155 46.6431 28.1643C46.4925 28.513 46.3306 28.8568 46.1581 29.1962C45.9862 29.5349 45.8037 29.868 45.6106 30.1955C45.4181 30.5237 45.215 30.8449 45.0025 31.1599C44.79 31.4749 44.5681 31.7837 44.3362 32.0849C44.105 32.3868 43.8644 32.6805 43.615 32.9674C43.365 33.2543 43.1069 33.533 42.84 33.8037C42.5731 34.0743 42.2981 34.3368 42.015 34.5905C41.7325 34.8443 41.4419 35.0893 41.1437 35.3255C40.8456 35.5612 40.5406 35.788 40.2287 36.0049C39.9162 36.2224 39.5981 36.4299 39.2731 36.6274C38.9487 36.8249 38.6181 37.0124 38.2819 37.1893C37.9456 37.3668 37.6037 37.5337 37.2575 37.6893C36.9106 37.8455 36.5594 37.9912 36.2037 38.1255C35.8487 38.2605 35.4894 38.3837 35.1262 38.4962C34.7631 38.6087 34.3962 38.7099 34.0269 38.7999C33.6575 38.8899 33.2862 38.968 32.9119 39.0349C32.5375 39.1024 32.1619 39.1574 31.7837 39.2018C31.4062 39.2455 31.0275 39.2774 30.6481 39.298C30.2687 39.3187 29.8887 39.3274 29.5087 39.3249C29.1281 39.3218 28.7487 39.3074 28.3694 39.2812C27.99 39.2549 27.6119 39.2168 27.235 39.1674C26.8581 39.118 26.4831 39.0568 26.11 38.9843C25.7369 38.9118 25.3662 38.8274 24.9981 38.7324C24.63 38.6368 24.2656 38.5299 23.9037 38.4124C23.5425 38.2943 23.185 38.1655 22.8319 38.0255V47.5318C22.8319 47.6874 22.8244 47.8424 22.8087 47.9968C22.7937 48.1512 22.7712 48.3049 22.7406 48.4574C22.7106 48.6093 22.6725 48.7599 22.6275 48.9087C22.5825 49.0574 22.5306 49.2031 22.4712 49.3468C22.4119 49.4906 22.3456 49.6306 22.2719 49.7674C22.1987 49.9043 22.1194 50.0374 22.0331 50.1668C21.9469 50.2956 21.8544 50.4206 21.7556 50.5406C21.6575 50.6606 21.5531 50.7756 21.4431 50.8856C21.3337 50.9949 21.2187 51.0993 21.0987 51.1981C20.9787 51.2962 20.8537 51.3887 20.725 51.4749C20.5956 51.5612 20.4625 51.6412 20.3256 51.7143C20.1887 51.7874 20.0487 51.8537 19.905 51.9131C19.7612 51.9731 19.6156 52.0249 19.4669 52.0699C19.3181 52.1149 19.1681 52.1531 19.0156 52.1831C18.8631 52.2137 18.71 52.2362 18.555 52.2512C18.4006 52.2668 18.2456 52.2743 18.0906 52.2743C17.935 52.2743 17.78 52.2668 17.6256 52.2518C17.4712 52.2362 17.3175 52.2137 17.165 52.1831C17.0131 52.1531 16.8625 52.1156 16.7137 52.0706C16.565 52.0256 16.4187 51.9731 16.2756 51.9137C16.1319 51.8543 15.9919 51.7881 15.855 51.7149C15.7175 51.6412 15.5844 51.5618 15.4556 51.4756C15.3262 51.3893 15.2019 51.2968 15.0819 51.1981C14.9619 51.0999 14.8469 50.9956 14.7369 50.8856C14.6269 50.7756 14.5231 50.6606 14.4244 50.5406C14.3256 50.4206 14.2331 50.2962 14.1469 50.1668C14.0606 50.0381 13.9812 49.9049 13.9081 49.7681C13.8344 49.6306 13.7681 49.4906 13.7087 49.3468C13.6494 49.2037 13.5975 49.0574 13.5519 48.9087C13.5069 48.7599 13.4694 48.6099 13.4394 48.4574C13.4087 48.3049 13.3862 48.1518 13.3706 47.9968C13.3556 47.8424 13.3481 47.6874 13.3481 47.5318V29.4424C13.3481 29.2874 13.3556 29.1324 13.3712 28.978C13.3862 28.823 13.4087 28.6699 13.4394 28.5174C13.4694 28.3655 13.5075 28.2149 13.5525 28.0662C13.5975 27.918 13.6494 27.7718 13.7087 27.628C13.7681 27.4849 13.835 27.3449 13.9081 27.208C13.9812 27.0712 14.0606 26.938 14.1469 26.8087C14.2331 26.6799 14.3256 26.5549 14.4244 26.4349C14.5225 26.3149 14.6269 26.2005 14.7369 26.0905C14.8462 25.9805 14.9612 25.8768 15.0812 25.778C15.2012 25.6793 15.3256 25.5874 15.455 25.5012C15.5837 25.4149 15.7169 25.3349 15.8537 25.2618C15.9906 25.1887 16.1312 25.1224 16.2744 25.063C16.4181 25.0037 16.5637 24.9512 16.7125 24.9062C16.8612 24.8612 17.0112 24.8237 17.1637 24.793C17.3162 24.763 17.4694 24.7399 17.6237 24.7249C17.7781 24.7099 17.9331 24.7018 18.0887 24.7018C18.225 24.7018 18.3606 24.7099 18.4937 24.7212C18.6331 24.7099 18.7744 24.7018 18.9187 24.7018C19.2706 24.7012 19.6187 24.7387 19.9625 24.8162C20.3062 24.893 20.6369 25.0074 20.955 25.1587C21.2731 25.3099 21.5706 25.4943 21.8475 25.7124C22.1237 25.9299 22.3731 26.1762 22.5944 26.4499C22.7419 26.6343 22.8962 26.813 23.0575 26.9855C23.2187 27.158 23.3869 27.3237 23.5606 27.483C23.735 27.6424 23.9156 27.7943 24.1019 27.9399C24.2881 28.0849 24.48 28.2224 24.6769 28.3524C24.8744 28.4824 25.0762 28.6049 25.2825 28.7193C25.4894 28.833 25.7 28.9393 25.915 29.0368C26.13 29.1349 26.3487 29.2237 26.5706 29.3043C26.7925 29.3849 27.0175 29.4568 27.245 29.5199C27.4725 29.583 27.7025 29.6368 27.9344 29.6818C28.1662 29.7268 28.3994 29.7624 28.6337 29.7893C28.8687 29.8155 29.1037 29.833 29.34 29.8412C29.5756 29.8493 29.8119 29.8487 30.0475 29.838C30.2837 29.828 30.5187 29.8087 30.7531 29.7799C30.9875 29.7505 31.2206 29.713 31.4519 29.6662C31.6831 29.6187 31.9125 29.563 32.1394 29.498C32.3669 29.433 32.5906 29.3593 32.8119 29.2768C33.0331 29.1937 33.2512 29.103 33.465 29.003C33.6794 28.9037 33.8894 28.7955 34.095 28.6793C34.3006 28.563 34.5012 28.4393 34.6969 28.3074C34.8931 28.1755 35.0831 28.0362 35.2681 27.8893C35.4531 27.7424 35.6325 27.5887 35.805 27.428C35.9781 27.2674 36.1444 27.0999 36.3044 26.9262C36.4644 26.7518 36.6169 26.5724 36.7625 26.3862C36.9081 26.2005 37.0462 26.0093 37.1769 25.8124C37.3075 25.6155 37.4306 25.4143 37.5456 25.208C37.66 25.0018 37.7669 24.7912 37.865 24.5762C37.9637 24.3618 38.0531 24.1437 38.1344 23.9218C38.2156 23.6999 38.2881 23.4755 38.3519 23.248C38.4156 23.0205 38.47 22.7912 38.5156 22.5593C38.5612 22.3274 38.5981 22.0943 38.625 21.8599C38.6525 21.6255 38.6706 21.3899 38.6794 21.1537C38.6887 20.918 38.6881 20.6818 38.6787 20.4462C38.4919 15.6805 34.5744 11.8512 29.8069 11.7699C29.4275 11.763 29.0494 11.7805 28.6719 11.8218C28.2944 11.863 27.9212 11.9274 27.5525 12.0155C27.1831 12.1037 26.8212 12.2149 26.4656 12.3487C26.1106 12.4824 25.765 12.638 25.43 12.8155C25.0944 12.993 24.7712 13.1905 24.4606 13.4087C24.15 13.6268 23.8544 13.8637 23.5731 14.1193C23.2925 14.3749 23.0287 14.6468 22.7825 14.9355C22.5362 15.2237 22.3087 15.5268 22.1006 15.8443C21.9944 16.0074 21.8787 16.1637 21.7537 16.3124C21.6281 16.4612 21.4944 16.6018 21.3519 16.7343C21.2087 16.8668 21.0587 16.9899 20.9006 17.1037C20.7425 17.2174 20.5781 17.3205 20.4075 17.4143C20.2369 17.5074 20.0606 17.5899 19.88 17.6618C19.6987 17.733 19.5144 17.793 19.3256 17.8418C19.1375 17.8905 18.9462 17.9274 18.7537 17.9524C18.5606 17.9774 18.3669 17.9905 18.1719 17.9918H18.0469C14.3119 17.9918 12.0825 13.848 14.1219 10.7193C14.3887 10.3074 14.6719 9.9068 14.9712 9.51805C15.2706 9.12867 15.5844 8.7518 15.9137 8.38742C16.2425 8.02305 16.5856 7.67242 16.9425 7.33555C17.2994 6.99867 17.6694 6.67617 18.0519 6.36867C18.4344 6.06117 18.8287 5.7693 19.2344 5.49305C19.6406 5.2168 20.0562 4.9568 20.4831 4.71367C20.9094 4.47055 21.345 4.24492 21.7894 4.03617C22.2337 3.82805 22.6856 3.63742 23.1456 3.46492C23.605 3.29242 24.0706 3.13805 24.5425 3.00305C25.0144 2.86742 25.4906 2.75055 25.9719 2.65305C26.4531 2.55555 26.9375 2.47742 27.4244 2.41805C27.9119 2.3593 28.4006 2.3193 28.8912 2.2993C29.3819 2.2793 29.8725 2.27867 30.3631 2.29742C30.8537 2.31617 31.3425 2.3543 31.83 2.4118C32.3175 2.46992 32.8019 2.5468 33.2831 2.64305C33.765 2.7393 34.2412 2.8543 34.7137 2.98867C35.1862 3.12305 35.6519 3.27555 36.1119 3.4468C36.5725 3.61805 37.025 3.80742 37.47 4.0143C37.915 4.2218 38.3506 4.44617 38.7781 4.68805C39.205 4.92992 39.6219 5.18867 40.0287 5.46367C40.435 5.73867 40.83 6.02992 41.2137 6.33617C41.5975 6.64305 41.9681 6.9643 42.3256 7.29992C42.6837 7.63617 43.0275 7.98555 43.3575 8.3493C43.6881 8.71242 44.0031 9.08805 44.3031 9.4768C44.6031 9.86492 44.8875 10.2649 45.1562 10.6762C45.4244 11.0868 45.6762 11.508 45.9112 11.9393C46.1462 12.3699 46.3631 12.8099 46.5631 13.258C46.7631 13.7068 46.945 14.1624 47.1087 14.6249C47.2725 15.088 47.4175 15.5562 47.5437 16.0305C47.6706 16.5049 47.7775 16.9837 47.8662 17.4668C47.9544 17.9493 48.0237 18.4349 48.0731 18.9237C48.1231 19.4118 48.1531 19.9012 48.1637 20.3924Z" fill="#5B18D2"/>
</g>
</g>
</g>
<g id="Clip path group_2">
<mask id="mask1_194_379" style="mask-type:luminance" maskUnits="userSpaceOnUse" x="13" y="45" width="10" height="13">
<g id="929261c16a">
<path id="Vector_3" d="M13.6 45.12H22.72V57.44H13.6V45.12Z" fill="white"/>
</g>
</mask>
<g mask="url(#mask1_194_379)">
<g id="Group_2">
<g id="Clip path group_3">
<mask id="mask2_194_379" style="mask-type:luminance" maskUnits="userSpaceOnUse" x="11" y="45" width="14" height="13">
<g id="d23c167b84">
<path id="Vector_4" d="M11.8563 51.4156L18.1356 45.1362L24.415 51.4156L18.1356 57.6944L11.8563 51.4156Z" fill="white"/>
</g>
</mask>
<g mask="url(#mask2_194_379)">
<g id="Group_3">
<g id="Clip path group_4">
<mask id="mask3_194_379" style="mask-type:luminance" maskUnits="userSpaceOnUse" x="-3" y="16" width="42" height="42">
<g id="7340fb6818">
<path id="Vector_5" d="M-2.25687 37.3025L18.1931 16.8525L38.6425 37.3025L18.1931 57.7519L-2.25687 37.3025Z" fill="white"/>
</g>
</mask>
<g mask="url(#mask3_194_379)">
<g id="Group_4">
<path id="Vector_6" d="M15.275 20.6238C14.4256 20.6238 13.7375 21.3119 13.7369 22.1613V49.2763L13.8419 49.4807L17.6919 57.0657C17.8875 57.4475 18.4375 57.4475 18.6325 57.0657L22.4831 49.4807L22.5875 49.2763V22.1613C22.5875 21.3119 21.8994 20.6238 21.0494 20.6238H15.275ZM19.4706 48.7675C19.4731 48.7694 19.4756 48.7675 19.4775 48.7694C19.4775 48.7694 19.48 48.7675 19.4844 48.7675C19.48 48.7719 19.48 48.7763 19.4775 48.7788C19.4756 48.7763 19.4731 48.7694 19.4706 48.7675ZM16.84 48.7675C16.845 48.7675 16.8469 48.7694 16.8469 48.7694C16.8519 48.7694 16.8538 48.7675 16.8538 48.7675C16.8519 48.7694 16.8494 48.7763 16.8469 48.7788C16.845 48.7763 16.845 48.7719 16.84 48.7675ZM21.6244 49.0444L19.1688 53.8763H17.1563L14.7006 49.0444V48.9307C14.8981 48.6875 15.1956 48.5263 15.5344 48.5288C16.125 48.5288 16.6063 49.01 16.6063 49.6007C16.6088 49.735 16.7156 49.8419 16.8475 49.8419C16.9813 49.8438 17.09 49.735 17.0881 49.6007C17.0881 49.01 17.5694 48.5288 18.1625 48.5263C18.7556 48.5288 19.2369 49.01 19.2369 49.6007C19.235 49.735 19.3438 49.8438 19.4781 49.8419C19.6094 49.8419 19.7163 49.735 19.7188 49.6007C19.7188 49.01 20.2 48.5288 20.7906 48.5288C21.1294 48.5263 21.4269 48.6875 21.6244 48.9307V49.0444Z" fill="#5B18D2"/>
</g>
</g>
</g>
</g>
</g>
</g>
</g>
</g>
</g>
<path id="Vector_7" d="M15.3112 24.265V48.265" stroke="white"/>
<path id="Vector_8" d="M18.1006 24.265V48.265" stroke="white"/>
<path id="Vector_9" d="M20.8906 24.265V48.265" stroke="white"/>
<g id="Clip path group_5">
<mask id="mask4_194_379" style="mask-type:luminance" maskUnits="userSpaceOnUse" x="28" y="13" width="7" height="10">
<g id="79f350bd88">
<path id="Vector_10" d="M28.2925 13.8075H34.3356V22.4H28.2925V13.8075Z" fill="white"/>
</g>
</mask>
<g mask="url(#mask4_194_379)">
<g id="Group_5">
<path id="Vector_11" fill-rule="evenodd" clip-rule="evenodd" d="M28.8938 14.8382H28.3075L29.0857 13.8007L29.8632 14.8382H29.2775V21.3219H33.4507V20.7363L34.4882 21.5138L33.4507 22.2919V21.7063H28.8938V14.8382Z" fill="#5B18D2"/>
</g>
</g>
</g>
<g id="Clip path group_6">
<mask id="mask5_194_379" style="mask-type:luminance" maskUnits="userSpaceOnUse" x="28" y="21" width="2" height="2">
<g id="99918b17fa">
<path id="Vector_12" d="M28.6988 21.2137H29.5619V22.0775H28.6988V21.2137Z" fill="white"/>
</g>
</mask>
<g mask="url(#mask5_194_379)">
<g id="Group_6">
<path id="Vector_13" d="M29.6175 21.6749C29.6175 21.7356 29.6063 21.7937 29.5831 21.8499C29.5594 21.9062 29.5263 21.9556 29.4838 21.9987C29.4406 22.0418 29.3906 22.0749 29.335 22.0981C29.2788 22.1212 29.22 22.1331 29.1594 22.1331C29.0988 22.1331 29.04 22.1212 28.9838 22.0981C28.9275 22.0749 28.8781 22.0418 28.835 21.9987C28.7925 21.9556 28.7594 21.9062 28.7356 21.8499C28.7125 21.7937 28.7013 21.7356 28.7013 21.6749C28.7013 21.6137 28.7125 21.5556 28.7356 21.4993C28.7594 21.4431 28.7925 21.3937 28.835 21.3506C28.8781 21.3074 28.9275 21.2743 28.9838 21.2512C29.04 21.2281 29.0988 21.2162 29.1594 21.2162C29.22 21.2162 29.2788 21.2281 29.335 21.2512C29.3906 21.2743 29.4406 21.3074 29.4838 21.3506C29.5263 21.3937 29.5594 21.4431 29.5831 21.4993C29.6063 21.5556 29.6175 21.6137 29.6175 21.6749Z" fill="#5B18D2" stroke="black" stroke-width="0.0435185" stroke-miterlimit="10"/>
</g>
</g>
</g>
</g>
</svg>
