<svg width="16" height="16" viewBox="0 0 16 16" fill="none" xmlns="http://www.w3.org/2000/svg">
<g id="redo">
<mask id="mask0_416_257" style="mask-type:alpha" maskUnits="userSpaceOnUse" x="0" y="0" width="16" height="16">
<rect id="Bounding box" width="16" height="16" fill="#D9D9D9"/>
</mask>
<g mask="url(#mask0_416_257)">
<path id="redo_2" d="M6.59935 12.667C5.52157 12.667 4.59657 12.317 3.82435 11.617C3.05213 10.917 2.66602 10.0448 2.66602 9.00033C2.66602 7.95588 3.05213 7.08366 3.82435 6.38366C4.59657 5.68366 5.52157 5.33366 6.59935 5.33366H10.7993L9.06602 3.60033L9.99935 2.66699L13.3327 6.00033L9.99935 9.33366L9.06602 8.40033L10.7993 6.66699H6.59935C5.89935 6.66699 5.29102 6.88921 4.77435 7.33366C4.25768 7.7781 3.99935 8.33366 3.99935 9.00033C3.99935 9.66699 4.25768 10.2225 4.77435 10.667C5.29102 11.1114 5.89935 11.3337 6.59935 11.3337H11.3327V12.667H6.59935Z" fill="#1D1B20"/>
</g>
</g>
</svg>
